<?xml version="1.0" encoding="UTF-8" standalone="no"?>
<svg
   viewBox="0 0 135.46001 135.46001"
   version="1.1"
   id="svg20"
   width="135.46001"
   height="135.46001"
   xmlns="http://www.w3.org/2000/svg"
   xmlns:svg="http://www.w3.org/2000/svg">
  <defs
     id="defs1">
    <style
       id="style1">.cls-1{fill:#663695;}.cls-2{fill:#4374ba;}.cls-3{fill:#fec111;}.cls-4{fill:#fff;}</style>
  </defs>
  <path
     d="M 63.005056,94.563013 H 45.831117 V 33.06483 h 17.173939 v 10.437421 h 0.699458 a 18.409153,18.577106 0 0 1 5.625432,-8.379973 16.028017,16.174247 0 0 1 10.744874,-3.45411 17.947808,18.111552 0 0 1 10.670462,3.153753 17.456699,17.615964 0 0 1 6.38442,9.266027 h 0.35717 a 17.084646,17.240517 0 0 1 6.607648,-8.785455 19.956891,20.138966 0 0 1 11.90568,-3.634325 15.864314,16.00905 0 0 1 13.52782,6.382596 q 4.68786,6.382594 4.68786,18.021444 V 94.608067 H 117.10147 V 57.438835 c 0,-3.979735 -0.68457,-6.938256 -2.02396,-8.845526 a 7.2773449,7.343739 0 0 0 -6.33977,-2.868414 12.367022,12.479851 0 0 0 -4.86645,0.991181 8.9292576,9.0107227 0 0 0 -3.78005,3.003573 8.1702707,8.2448114 0 0 0 -1.488211,5.030987 V 94.57803 H 81.458855 V 57.438835 c 0,-3.979735 -0.684577,-6.938256 -2.083494,-8.845526 a 7.292227,7.358757 0 0 0 -6.265362,-2.868414 12.128908,12.239565 0 0 0 -4.762271,0.991181 9.2864279,9.3711516 0 0 0 -3.824699,3.003573 7.917275,7.9895075 0 0 0 -1.488209,5.030987 z"
     id="path14"
     style="fill:#ffffff;stroke-width:1.49498" />
  <path
     d="m 26.930855,46.535861 v 34.541103 h 11.14669 v 13.516085 h -10.224 q -8.825083,0 -13.393886,-4.505362 Q 9.8908553,85.582325 9.8164448,76.736799 V 46.701057 H 1.2145934 V 33.184973 h 4.3009257 c 2.321607,0 3.9139912,-0.570679 4.7622709,-1.69702 a 7.8577466,7.9294361 0 0 0 1.27986,-4.865791 V 23.618589 L 26.990384,8.0450564 V 33.06483 h 12.069379 v 13.516085 z"
     id="path15"
     style="fill:#ffffff;stroke-width:1.49498" />
  <g
     id="g4"
     transform="matrix(1.4882096,0,0,1.4882096,-30.097339,-32.166365)">
    <rect
       class="cls-1"
       x="26.779999"
       y="92.966209"
       width="27.889999"
       height="11.786562"
       id="rect15"
       style="stroke-width:1.00455" />
    <rect
       class="cls-2"
       x="54.669998"
       y="92.966209"
       width="27.889999"
       height="11.786562"
       id="rect16"
       style="fill:#0d6efd;stroke-width:1.00455" />
    <rect
       class="cls-3"
       x="82.559998"
       y="92.966209"
       width="27.889999"
       height="11.786562"
       id="rect17"
       style="fill:#ffc107;stroke-width:1.00455" />
  </g>
</svg>
