<?xml version="1.0" encoding="UTF-8" standalone="no"?>
<svg
   viewBox="0 0 409.19535 86.059997"
   version="1.1"
   id="svg20"
   width="409.19534"
   height="86.059998"
   xmlns="http://www.w3.org/2000/svg"
   xmlns:svg="http://www.w3.org/2000/svg">
  <defs
     id="defs1">
    <style
       id="style1">.cls-1{fill:#663695;}.cls-2{fill:#4374ba;}.cls-3{fill:#fec111;}.cls-4{fill:#fff;}</style>
  </defs>
  <path
     d="M 46,58.66 A 19.43,19.43 0 0 1 35.66,56 17,17 0 0 1 29.07,48.55 26.15,26.15 0 0 1 26.77,37.17 25.86,25.86 0 0 1 29.07,25.78 17.12,17.12 0 0 1 35.66,18.41 19.43,19.43 0 0 1 46,15.83 a 19.44,19.44 0 0 1 10.3,2.62 17.12,17.12 0 0 1 6.59,7.37 26,26 0 0 1 2.3,11.39 26.29,26.29 0 0 1 -2.3,11.38 A 17,17 0 0 1 56.25,56 19.44,19.44 0 0 1 46,58.66 Z m 0,-9.13 a 6.67,6.67 0 0 0 5.31,-2.14 8.82,8.82 0 0 0 1.87,-6 v -8.32 a 8.76,8.76 0 0 0 -1.87,-6 A 6.72,6.72 0 0 0 46,25 a 6.73,6.73 0 0 0 -5.26,2.11 8.58,8.58 0 0 0 -1.91,6 v 8.35 a 8.63,8.63 0 0 0 1.91,6 6.68,6.68 0 0 0 5.26,2.07 z"
     id="path1"
     style="fill:#000000" />
  <path
     d="m 96.22,57.72 v -6.86 h -0.39 a 9.8,9.8 0 0 1 -3.94,5.57 11.73,11.73 0 0 1 -7.06,2.23 14.72,14.72 0 0 1 -8.66,-2.46 14.9,14.9 0 0 1 -5.3,-7.2 33.62,33.62 0 0 1 -1.8,-11.74 33.23,33.23 0 0 1 1.8,-11.7 13.84,13.84 0 0 1 14,-9.68 11.9,11.9 0 0 1 7.02,2.12 9.64,9.64 0 0 1 3.94,5.61 h 0.39 V 0 h 11.54 V 57.72 Z M 88.65,49.3 a 10.19,10.19 0 0 0 3.9,-0.71 6,6 0 0 0 2.69,-2.06 5.43,5.43 0 0 0 1,-3.24 V 31.2 a 5.43,5.43 0 0 0 -1,-3.24 6,6 0 0 0 -2.69,-2.06 10.19,10.19 0 0 0 -3.9,-0.71 7.08,7.08 0 0 0 -5.42,2.31 8.72,8.72 0 0 0 -2.15,6.2 v 7.09 a 8.78,8.78 0 0 0 2.15,6.21 7,7 0 0 0 5.42,2.3 z"
     id="path2"
     style="fill:#000000" />
  <path
     d="M 132.2,58.66 A 19.44,19.44 0 0 1 121.9,56 17,17 0 0 1 115.31,48.55 26.15,26.15 0 0 1 113,37.21 a 25.86,25.86 0 0 1 2.3,-11.39 17.12,17.12 0 0 1 6.59,-7.37 21.54,21.54 0 0 1 20.59,0 17.12,17.12 0 0 1 6.59,7.37 25.86,25.86 0 0 1 2.3,11.39 26.15,26.15 0 0 1 -2.3,11.38 17,17 0 0 1 -6.58,7.41 19.43,19.43 0 0 1 -10.29,2.66 z m 0,-9.13 a 6.67,6.67 0 0 0 5.3,-2.14 8.77,8.77 0 0 0 1.87,-6 v -8.32 a 8.71,8.71 0 0 0 -1.87,-6 7.67,7.67 0 0 0 -10.57,0 8.63,8.63 0 0 0 -1.91,6 v 8.35 a 8.68,8.68 0 0 0 1.91,6 6.7,6.7 0 0 0 5.27,2.11 z"
     id="path3"
     style="fill:#000000" />
  <path
     d="M 168.13,57.72 H 156.59 V 16.77 h 11.54 v 6.94 h 0.47 a 12.39,12.39 0 0 1 3.78,-5.57 10.72,10.72 0 0 1 7.22,-2.31 12.06,12.06 0 0 1 7.17,2.11 11.7,11.7 0 0 1 4.29,6.16 h 0.24 a 11.43,11.43 0 0 1 4.44,-5.85 13.41,13.41 0 0 1 8,-2.42 10.61,10.61 0 0 1 9.08,4.26 q 3.16,4.25 3.16,12 v 25.63 h -11.5 V 33 q 0,-4 -1.37,-5.89 a 4.87,4.87 0 0 0 -4.25,-1.91 8.32,8.32 0 0 0 -3.27,0.67 6,6 0 0 0 -2.54,2 5.49,5.49 0 0 0 -1,3.35 v 26.5 H 180.53 V 33 c 0,-2.65 -0.46,-4.61 -1.4,-5.89 a 4.9,4.9 0 0 0 -4.21,-1.91 8.16,8.16 0 0 0 -3.2,0.67 6.16,6.16 0 0 0 -2.57,2 5.32,5.32 0 0 0 -1,3.35 z"
     id="path4"
     style="fill:#000000" />
  <path
     d="M 240.54,58.66 A 20.56,20.56 0 0 1 229.89,56 a 16.83,16.83 0 0 1 -6.71,-7.45 26.29,26.29 0 0 1 -2.3,-11.38 26.41,26.41 0 0 1 2.23,-11.27 16.79,16.79 0 0 1 6.51,-7.45 19.48,19.48 0 0 1 10.45,-2.66 q 6.78,0 11,2.93 a 17.12,17.12 0 0 1 6.12,7.68 26.91,26.91 0 0 1 2,10.3 v 3.43 h -26.37 v 0.62 a 9.07,9.07 0 0 0 2.18,6.48 q 2.22,2.39 6.82,2.38 a 10.51,10.51 0 0 0 5.89,-1.48 27.19,27.19 0 0 0 4.18,-3.44 l 5.77,7.18 a 18.94,18.94 0 0 1 -7.14,5 25.94,25.94 0 0 1 -9.98,1.79 z M 240.3,24.34 a 7.4,7.4 0 0 0 -4,1.05 6.91,6.91 0 0 0 -2.58,2.92 10.33,10.33 0 0 0 -0.89,4.45 v 0.62 h 14.35 v -0.7 a 11.94,11.94 0 0 0 -0.74,-4.37 6.33,6.33 0 0 0 -2.26,-2.92 6.69,6.69 0 0 0 -3.88,-1.05 z"
     id="path5"
     style="fill:#000000" />
  <path
     d="m 285.29,57.72 h -6.87 q -5.93,0 -9.05,-3 -3.12,-3 -3.12,-8.89 v -20 h -5.77 v -9 h 2.89 a 3.83,3.83 0 0 0 3.2,-1.13 5.28,5.28 0 0 0 0.85,-3.24 V 5.69 h 10.38 v 11.08 h 8.11 v 9 h -8.11 v 23 h 7.49 z"
     id="path6"
     style="fill:#000000" />
  <path
     d="M 301.71,57.72 H 290.16 V 16.77 h 11.55 v 8.89 h 0.39 a 13.3,13.3 0 0 1 1.71,-4.29 9.86,9.86 0 0 1 3.39,-3.31 10.22,10.22 0 0 1 5.35,-1.29 h 2 v 10.76 h -2.89 a 22.32,22.32 0 0 0 -5.58,0.59 6.17,6.17 0 0 0 -3.28,1.88 5.73,5.73 0 0 0 -1.09,3.74 z"
     id="path7"
     style="fill:#000000" />
  <path
     d="m 324.86,13.1 q -3.51,0 -5.11,-1.63 A 5.62,5.62 0 0 1 318.16,7.41 V 5.69 A 5.56,5.56 0 0 1 319.75,1.6 Q 321.36,0 324.86,0 c 2.34,0 4.05,0.53 5.11,1.6 a 5.53,5.53 0 0 1 1.6,4.09 v 1.72 a 5.59,5.59 0 0 1 -1.6,4.06 c -1.06,1.09 -2.77,1.63 -5.11,1.63 z m -5.77,44.62 V 16.77 h 11.54 v 41 z"
     id="path8"
     style="fill:#000000" />
  <path
     d="m 355,58.66 q -9.21,0 -14.16,-5.81 -4.95,-5.81 -5,-15.64 0,-9.84 5,-15.6 5,-5.76 14.16,-5.78 a 18.25,18.25 0 0 1 10.41,2.81 15.41,15.41 0 0 1 6,7.88 L 362,30.58 a 7.86,7.86 0 0 0 -2.27,-4 A 6.61,6.61 0 0 0 355,25 a 6.34,6.34 0 0 0 -5.31,2.3 9.87,9.87 0 0 0 -1.79,6.2 v 7.65 a 9.9,9.9 0 0 0 1.79,6.16 6.29,6.29 0 0 0 5.31,2.3 6.56,6.56 0 0 0 5.11,-1.87 12.88,12.88 0 0 0 2.53,-4.29 l 9,3.9 a 15.87,15.87 0 0 1 -6.32,8.58 18.76,18.76 0 0 1 -10.32,2.73 z"
     id="path9"
     style="fill:#000000" />
  <path
     d="m 391.63,58.66 a 23.37,23.37 0 0 1 -10,-1.91 23.12,23.12 0 0 1 -7.26,-5.43 l 6.79,-6.86 a 17.55,17.55 0 0 0 4.84,3.82 12.6,12.6 0 0 0 6,1.41 c 2.29,0 3.87,-0.35 4.76,-1.06 a 3.44,3.44 0 0 0 1.32,-2.84 2.81,2.81 0 0 0 -1,-2.34 6.64,6.64 0 0 0 -3.16,-1.1 l -4.45,-0.54 a 24.11,24.11 0 0 1 -7.68,-2.19 10.77,10.77 0 0 1 -4.6,-4.17 12.3,12.3 0 0 1 -1.52,-6.28 12.12,12.12 0 0 1 4.33,-9.63 q 4.29,-3.7 11.62,-3.71 a 30,30 0 0 1 7.25,0.75 16.94,16.94 0 0 1 5.19,2.18 26.17,26.17 0 0 1 4.25,3.47 L 401.69,29 a 15.15,15.15 0 0 0 -4.4,-3.08 11.87,11.87 0 0 0 -5,-1.14 7.25,7.25 0 0 0 -4.17,0.94 2.94,2.94 0 0 0 -1.29,2.5 3.42,3.42 0 0 0 0.9,2.53 6.25,6.25 0 0 0 3.39,1.29 l 4.61,0.62 q 6.71,0.85 10.1,3.94 a 10.78,10.78 0 0 1 3.35,8.4 12,12 0 0 1 -2.18,7 14.44,14.44 0 0 1 -6.13,4.87 22.5,22.5 0 0 1 -9.24,1.79 z"
     id="path10"
     style="fill:#000000" />
  <path
     d="m 17.32,25.74 v 23 h 7.49 v 9 h -6.87 q -5.93,0 -9,-3 -3.07,-3 -3.16,-8.95 v -20 H 0 v -9 h 2.89 c 1.56,0 2.63,-0.38 3.2,-1.13 A 5.28,5.28 0 0 0 7,12.4 v -2 L 17.32,0 v 16.77 h 8.11 v 9 z"
     id="path11"
     style="fill:#000000" />
  <rect
     class="cls-1"
     y="71.610001"
     width="136.39"
     height="14.45"
     id="rect11"
     x="0" />
  <rect
     class="cls-2"
     x="136.39"
     y="71.610001"
     width="136.39"
     height="14.45"
     id="rect12"
     style="fill:#0d6efd" />
  <rect
     class="cls-3"
     x="272.79001"
     y="71.610001"
     width="136.39"
     height="14.45"
     id="rect13"
     style="fill:#ffc107" />
</svg>
